<svg fill="none" xmlns="http://www.w3.org/2000/svg">
    <symbol id="logo">
        <svg xmlns="http://www.w3.org/2000/svg" width="137" height="22" fill="none">
            <path fill="currentColor"
                  d="M119.711 3.998h4.44v4.128l-.168.576v3.552l.168 1.056v8.328h-4.44V3.998Zm2.976 6.84c.24-1.472.696-2.744 1.368-3.816.672-1.072 1.52-1.904 2.544-2.496 1.04-.608 2.192-.912 3.456-.912 1.344 0 2.52.304 3.528.912 1.024.608 1.824 1.456 2.4 2.544.576 1.072.864 2.328.864 3.768s-.288 2.704-.864 3.792a6.385 6.385 0 0 1-2.4 2.52c-1.008.608-2.184.912-3.528.912-1.28 0-2.432-.296-3.456-.888-1.008-.608-1.848-1.448-2.52-2.52-.672-1.088-1.136-2.36-1.392-3.816Zm9.648 0c0-.736-.152-1.384-.456-1.944a3.324 3.324 0 0 0-1.272-1.344c-.528-.336-1.136-.504-1.824-.504-.704 0-1.376.168-2.016.504-.64.32-1.2.768-1.68 1.344a6.215 6.215 0 0 0-1.08 1.944 6.525 6.525 0 0 0 1.08 1.968c.48.56 1.04 1.008 1.68 1.344.64.32 1.312.48 2.016.48.688 0 1.296-.16 1.824-.48a3.539 3.539 0 0 0 1.272-1.344c.304-.576.456-1.232.456-1.968ZM100.328 3.998h4.44v4.128l-.168.576v3.552l.168 1.056v8.328h-4.44V3.998Zm2.976 6.84c.24-1.472.696-2.744 1.368-3.816.672-1.072 1.52-1.904 2.544-2.496 1.04-.608 2.192-.912 3.456-.912 1.344 0 2.52.304 3.528.912 1.024.608 1.824 1.456 2.4 2.544.576 1.072.864 2.328.864 3.768s-.288 2.704-.864 3.792a6.385 6.385 0 0 1-2.4 2.52c-1.008.608-2.184.912-3.528.912-1.28 0-2.432-.296-3.456-.888-1.008-.608-1.848-1.448-2.52-2.52-.672-1.088-1.136-2.36-1.392-3.816Zm9.648 0c0-.736-.152-1.384-.456-1.944a3.324 3.324 0 0 0-1.272-1.344c-.528-.336-1.136-.504-1.824-.504-.704 0-1.376.168-2.016.504-.64.32-1.2.768-1.68 1.344a6.215 6.215 0 0 0-1.08 1.944 6.525 6.525 0 0 0 1.08 1.968c.48.56 1.04 1.008 1.68 1.344.64.32 1.312.48 2.016.48.688 0 1.296-.16 1.824-.48a3.539 3.539 0 0 0 1.272-1.344c.304-.576.456-1.232.456-1.968ZM93.166 17.678l-.6-4.968.648-1.872-.648-1.848.6-4.992h4.632l-.84 6.84.84 6.84h-4.632Zm1.104-6.84c-.24 1.456-.696 2.728-1.368 3.816-.672 1.072-1.52 1.912-2.544 2.52-1.024.592-2.176.888-3.456.888-1.344 0-2.528-.304-3.552-.912a6.439 6.439 0 0 1-2.376-2.52c-.576-1.088-.864-2.352-.864-3.792s.288-2.696.864-3.768c.576-1.088 1.368-1.936 2.376-2.544 1.024-.608 2.208-.912 3.552-.912 1.28 0 2.432.304 3.456.912 1.024.592 1.872 1.424 2.544 2.496.688 1.072 1.144 2.344 1.368 3.816Zm-9.648 0c0 .736.152 1.392.456 1.968.304.56.72 1.008 1.248 1.344.544.32 1.168.48 1.872.48.704 0 1.368-.16 1.992-.48.64-.336 1.2-.784 1.68-1.344.48-.576.84-1.232 1.08-1.968a5.638 5.638 0 0 0-1.08-1.944 5.201 5.201 0 0 0-1.68-1.344 4.14 4.14 0 0 0-1.992-.504c-.704 0-1.328.168-1.872.504-.528.32-.944.768-1.248 1.344-.304.56-.456 1.208-.456 1.944ZM69.858 18.062c-1.728 0-3.24-.304-4.536-.912-1.296-.608-2.304-1.456-3.024-2.544-.72-1.088-1.08-2.344-1.08-3.768 0-1.44.36-2.696 1.08-3.768.72-1.088 1.728-1.936 3.024-2.544 1.312-.608 2.824-.912 4.536-.912 1.728 0 3.24.304 4.536.912 1.312.608 2.328 1.456 3.048 2.544.72 1.072 1.08 2.328 1.08 3.768s-.36 2.704-1.08 3.792c-.72 1.072-1.736 1.912-3.048 2.52-1.296.608-2.808.912-4.536.912Zm0-3.36c.88 0 1.624-.152 2.232-.456a3.29 3.29 0 0 0 1.416-1.344c.336-.576.504-1.264.504-2.064s-.168-1.488-.504-2.064a3.15 3.15 0 0 0-1.416-1.32c-.608-.32-1.352-.48-2.232-.48-.848 0-1.584.16-2.208.48a3.293 3.293 0 0 0-1.44 1.32c-.336.576-.504 1.264-.504 2.064s.168 1.488.504 2.064a3.442 3.442 0 0 0 1.44 1.344c.624.304 1.36.456 2.208.456ZM46.836 7.31V5.366l2.832-1.032L51.588.35h2.544v3.648h5.904V7.31h-5.904v4.512c0 1.024.208 1.744.624 2.16.416.4 1.16.6 2.232.6.688 0 1.288-.056 1.8-.168a8.559 8.559 0 0 0 1.488-.504v3.384c-.48.192-1.112.368-1.896.528-.768.16-1.568.24-2.4.24-1.456 0-2.656-.232-3.6-.696-.928-.464-1.616-1.112-2.064-1.944-.432-.848-.648-1.84-.648-2.976V7.31h-2.832ZM46.126 13.286c0 1.024-.304 1.896-.912 2.616-.592.704-1.464 1.24-2.616 1.608-1.152.368-2.552.552-4.2.552-1.68 0-3.152-.208-4.416-.624-1.264-.416-2.248-1-2.952-1.752-.704-.752-1.08-1.624-1.128-2.616h4.536c.096.4.32.752.672 1.056.368.304.84.536 1.416.696.576.144 1.256.216 2.04.216 1.056 0 1.856-.112 2.4-.336.544-.224.816-.56.816-1.008 0-.336-.2-.592-.6-.768-.384-.176-1.08-.304-2.088-.384l-2.496-.192c-1.568-.112-2.816-.36-3.744-.744-.928-.384-1.592-.872-1.992-1.464a3.581 3.581 0 0 1-.576-1.992c0-1.008.312-1.848.936-2.52.64-.672 1.52-1.176 2.64-1.512 1.12-.336 2.432-.504 3.936-.504s2.84.2 4.008.6c1.184.4 2.128.952 2.832 1.656.72.704 1.128 1.528 1.224 2.472h-4.536c-.064-.32-.24-.616-.528-.888-.272-.272-.672-.488-1.2-.648-.512-.176-1.184-.264-2.016-.264-.944 0-1.664.104-2.16.312-.496.208-.744.512-.744.912 0 .304.152.544.456.72.304.176.88.304 1.728.384l3.24.24c1.536.128 2.736.376 3.6.744.88.352 1.504.816 1.872 1.392.368.576.552 1.256.552 2.04ZM21.105 18.062c-1.632 0-3.096-.304-4.392-.912-1.28-.608-2.288-1.456-3.024-2.544-.736-1.088-1.104-2.36-1.104-3.816 0-1.424.352-2.672 1.056-3.744.704-1.072 1.672-1.912 2.904-2.52 1.248-.608 2.656-.912 4.224-.912 1.6 0 2.976.352 4.128 1.056 1.152.704 2.04 1.696 2.664 2.976.624 1.28.936 2.784.936 4.512H16.161V9.35h9.888l-1.608 1.008c-.048-.752-.232-1.384-.552-1.896a3.043 3.043 0 0 0-1.224-1.2c-.512-.288-1.12-.432-1.824-.432-.768 0-1.432.152-1.992.456-.56.304-1 .728-1.32 1.272-.304.544-.456 1.176-.456 1.896 0 .912.2 1.688.6 2.328.416.64 1.008 1.128 1.776 1.464.784.336 1.736.504 2.856.504 1.024 0 2.048-.136 3.072-.408a10.518 10.518 0 0 0 2.76-1.2v2.904c-.928.64-1.992 1.136-3.192 1.488-1.184.352-2.464.528-3.84.528ZM0 3.998h4.512l.816 4.92v8.76H.864v-9.12L0 3.998Zm11.856-.192v3.84a12.162 12.162 0 0 0-2.448-.288c-.768 0-1.464.16-2.088.48-.608.304-1.096.792-1.464 1.464-.352.672-.528 1.544-.528 2.616l-.888-1.104c.112-.976.296-1.896.552-2.76a8.084 8.084 0 0 1 1.056-2.28c.448-.672 1-1.2 1.656-1.584.672-.384 1.48-.576 2.424-.576.272 0 .56.016.864.048.304.032.592.08.864.144Z"/>
        </svg>
    </symbol>

    <symbol id="x-mark">
        <path d="M22 12C22 17.5228 17.5228 22 12 22C6.47715 22 2 17.5228 2 12C2 6.47715 6.47715 2 12 2C17.5228 2 22 6.47715 22 12Z"
              fill="#393939"/>
        <path d="M14.2982 15.3587C14.5911 15.6516 15.0659 15.6516 15.3588 15.3587C15.6517 15.0658 15.6517 14.5909 15.3588 14.298L13.0608 12L15.3588 9.70197C15.6517 9.40908 15.6517 8.9342 15.3588 8.64131C15.0659 8.34842 14.591 8.34842 14.2982 8.64131L12.0001 10.9393L9.70198 8.64118C9.40908 8.34829 8.93421 8.34829 8.64132 8.64118C8.34842 8.93407 8.34842 9.40895 8.64132 9.70184L10.9395 12L8.6413 14.2982C8.34841 14.5911 8.34841 15.0659 8.6413 15.3588C8.93419 15.6517 9.40907 15.6517 9.70196 15.3588L12.0001 13.0607L14.2982 15.3587Z"
              fill="white"/>
    </symbol>

    <symbol id="user">
        <svg xmlns="http://www.w3.org/2000/svg" width="24" height="24" fill="none">
            <path fill="currentColor" fill-rule="evenodd"
                  d="M12 3.85a3.15 3.15 0 1 0 0 6.3 3.15 3.15 0 0 0 0-6.3ZM7.15 7a4.85 4.85 0 1 1 9.7 0 4.85 4.85 0 0 1-9.7 0Zm.28 8.785c-1.176.589-1.58 1.244-1.58 1.715 0 .471.404 1.126 1.58 1.715 1.126.562 2.74.935 4.57.935s3.444-.373 4.57-.935c1.176-.589 1.58-1.244 1.58-1.715 0-.471-.404-1.126-1.58-1.715-1.126-.562-2.74-.935-4.57-.935s-3.444.373-4.57.935Zm-.76-1.52C8.078 13.56 9.964 13.15 12 13.15s3.922.41 5.33 1.115c1.357.678 2.52 1.773 2.52 3.235s-1.163 2.557-2.52 3.235c-1.408.704-3.294 1.115-5.33 1.115s-3.922-.41-5.33-1.115c-1.357-.678-2.52-1.773-2.52-3.235s1.163-2.557 2.52-3.235Z"
                  clip-rule="evenodd"/>
        </svg>
    </symbol>

    <symbol id="cart">
        <svg xmlns="http://www.w3.org/2000/svg" width="24" height="24" fill="none">
            <path fill="currentColor"
                  d="M20.034 6.058a2.243 2.243 0 0 0-1.727-.808H6.181l-.031-.263A2.25 2.25 0 0 0 3.916 3H3.75a.75.75 0 0 0 0 1.5h.166a.75.75 0 0 1 .745.662l1.032 8.775a3.75 3.75 0 0 0 3.725 3.313h7.832a.75.75 0 0 0 0-1.5H9.418a2.25 2.25 0 0 1-2.115-1.5h8.94a3.75 3.75 0 0 0 3.69-3.085l.589-3.265a2.244 2.244 0 0 0-.488-1.842Zm-.984 1.575-.59 3.266a2.25 2.25 0 0 1-2.218 1.85H7.064l-.706-6h11.95a.75.75 0 0 1 .742.884ZM8.25 21a1.5 1.5 0 1 0 0-3 1.5 1.5 0 0 0 0 3ZM15.75 21a1.5 1.5 0 1 0 0-3 1.5 1.5 0 0 0 0 3Z"/>
        </svg>
    </symbol>

    <symbol id="vk">
        <svg xmlns="http://www.w3.org/2000/svg" width="24" height="24" fill="none">
            <path fill="currentColor"
                  d="M14.11 11.595c-.365-.137-.365-.662-.388-1.028-.091-1.303.366-3.291-.183-4.137-.388-.503-2.263-.457-3.405-.388-.32.046-.709.114-.983.251-.274.138-.549.366-.549.572 0 .297.686.251.937.64.275.411.275 1.302.275 2.034 0 .845-.138 1.966-.48 2.011-.526.023-.823-.503-1.097-.892a15.25 15.25 0 0 1-1.51-2.606c-.205-.48-.32-1.005-.617-1.21-.457-.321-1.28-.344-2.08-.321-.731.023-1.783-.069-1.989.366-.16.48.183.937.366 1.326.937 2.034 1.943 3.817 3.177 5.508 1.144 1.577 2.217 2.834 4.32 3.497.595.183 3.2.709 3.726 0 .183-.274.138-.892.229-1.349.091-.457.206-.914.64-.937.366-.023.571.297.8.526.252.252.457.457.64.686.435.435.892 1.029 1.44 1.258.754.32 1.92.228 3.017.182.892-.022 1.532-.205 1.6-.731.047-.412-.411-1.006-.685-1.349-.686-.845-1.006-1.097-1.784-1.874-.343-.344-.777-.71-.777-1.12-.023-.252.183-.48.366-.732.8-1.188 1.6-2.034 2.332-3.268.205-.366.686-1.212.503-1.623-.206-.458-1.349-.32-2.058-.32-.914 0-2.103-.07-2.332.113-.434.297-.617.778-.822 1.235-.457 1.052-1.075 2.125-1.715 2.926-.229.274-.662.845-.914.754Z"/>
        </svg>
    </symbol>

    <symbol id="whatsapp">
        <svg xmlns="http://www.w3.org/2000/svg" width="24" height="24" fill="none">
            <path fill="currentColor"
                  d="M12.375 2A9.362 9.362 0 0 0 3 11.375c0 2.125.688 4.125 2 5.75l-1.313 4c-.062.25 0 .5.188.688.063.125.25.187.375.187.063 0 .188 0 .25-.063L8.813 20c1.124.5 2.312.75 3.562.75a9.362 9.362 0 0 0 9.375-9.375A9.362 9.362 0 0 0 12.375 2Zm5.438 12.813c-.25.75-1.188 1.374-2 1.5-.188.062-.376.062-.626.062-.5 0-1.25-.125-2.562-.688-1.5-.624-3-1.937-4.188-3.624V12c-.374-.563-1.062-1.625-1.062-2.75 0-1.375.688-2.063.938-2.375.312-.313.75-.5 1.25-.5h.312c.438 0 .75.125 1.063.75l.25.5c.187.5.437 1.063.5 1.125.187.375.187.688 0 1-.063.188-.188.313-.313.438-.063.124-.125.187-.188.187l-.124.125c.187.313.562.875 1.062 1.313.75.687 1.313.874 1.625 1 .125-.126.25-.376.438-.563l.062-.125c.313-.438.813-.563 1.313-.375.25.125 1.624.75 1.624.75l.125.063c.188.124.438.187.563.437.25.563.063 1.375-.063 1.813Z"/>
        </svg>
    </symbol>

    <symbol id="telegram">
        <svg xmlns="http://www.w3.org/2000/svg" width="24" height="24" fill="none">
            <path fill="currentColor"
                  d="M19.465 4.132s1.666-.649 1.527.928c-.047.65-.463 2.922-.787 5.38l-1.11 7.281s-.092 1.067-.925 1.252c-.832.186-2.081-.649-2.312-.834-.185-.14-3.47-2.227-4.626-3.247-.323-.278-.694-.835.046-1.484l4.857-4.638c.555-.556 1.11-1.855-1.202-.278l-6.476 4.406s-.74.464-2.128.046l-3.006-.927s-1.11-.696.786-1.392c4.626-2.18 10.315-4.406 15.356-6.493Z"/>
        </svg>
    </symbol>

    <symbol id="appstore">
        <svg xmlns="http://www.w3.org/2000/svg" width="138" height="40" fill="none">
            <path fill="#fff"
                  d="M132.889.801c2.366 0 4.292 1.884 4.292 4.199v30c0 2.315-1.926 4.199-4.292 4.199H5.111C2.745 39.199.82 37.315.82 35V5C.82 2.685 2.745.801 5.111.801H132.89Zm0-.801H5.111C2.301 0 0 2.251 0 5v30c0 2.749 2.301 5 5.111 5H132.89c2.81 0 5.111-2.251 5.111-5V5c0-2.749-2.301-5-5.111-5Z"/>
            <path fill="#fff"
                  d="M30.797 19.784c-.03-3.223 2.698-4.791 2.823-4.864-1.545-2.203-3.939-2.504-4.78-2.528-2.01-.207-3.961 1.177-4.985 1.177-1.045 0-2.622-1.157-4.322-1.123-2.188.033-4.234 1.272-5.357 3.196-2.316 3.923-.589 9.688 1.63 12.859 1.11 1.553 2.408 3.287 4.106 3.226 1.661-.067 2.282-1.036 4.286-1.036 1.986 0 2.569 1.036 4.3.997 1.783-.028 2.906-1.56 3.977-3.127 1.283-1.78 1.798-3.533 1.819-3.623-.042-.014-3.463-1.291-3.496-5.154ZM27.526 10.306c.894-1.093 1.505-2.58 1.335-4.089-1.293.056-2.91.875-3.841 1.944-.824.942-1.56 2.486-1.37 3.938 1.453.106 2.944-.717 3.876-1.793ZM54.837 31.504h-2.321l-1.272-3.91h-4.42l-1.211 3.91h-2.26l4.379-13.308h2.705l4.4 13.308Zm-3.976-5.55-1.15-3.474c-.122-.355-.35-1.191-.686-2.507h-.041c-.134.566-.35 1.402-.646 2.507l-1.13 3.475h3.653ZM66.099 26.588c0 1.632-.45 2.922-1.353 3.869-.807.843-1.81 1.264-3.007 1.264-1.292 0-2.22-.454-2.785-1.362h-.041v5.055h-2.18V25.067c0-1.026-.027-2.08-.08-3.16h1.916l.122 1.522h.04c.728-1.146 1.83-1.718 3.31-1.718 1.158 0 2.124.447 2.897 1.342.775.896 1.16 2.074 1.16 3.535Zm-2.22.078c0-.934-.215-1.704-.646-2.31-.472-.632-1.104-.948-1.898-.948-.537 0-1.026.176-1.462.523-.438.35-.724.807-.858 1.373-.068.264-.101.48-.101.65v1.6c0 .698.218 1.287.656 1.768.438.48 1.006.72 1.705.72.82 0 1.46-.31 1.917-.927.458-.62.687-1.435.687-2.45ZM77.381 26.588c0 1.632-.45 2.922-1.353 3.869-.807.843-1.81 1.264-3.006 1.264-1.293 0-2.22-.454-2.785-1.362h-.04v5.055h-2.18V25.067c0-1.026-.028-2.08-.081-3.16h1.917l.121 1.522h.041c.726-1.146 1.829-1.718 3.31-1.718 1.156 0 2.122.447 2.897 1.342.772.896 1.16 2.074 1.16 3.535Zm-2.22.078c0-.934-.216-1.704-.647-2.31-.471-.632-1.102-.948-1.896-.948a2.3 2.3 0 0 0-1.464.523c-.438.35-.723.807-.857 1.373-.066.264-.1.48-.1.65v1.6c0 .698.218 1.287.653 1.768.438.48 1.006.72 1.708.72.82 0 1.46-.31 1.916-.927.458-.62.687-1.435.687-2.45ZM89.996 27.772c0 1.132-.402 2.053-1.209 2.764-.886.777-2.12 1.165-3.705 1.165-1.464 0-2.637-.276-3.526-.829l.505-1.777c.957.566 2.007.85 3.15.85.822 0 1.46-.182 1.92-.544.456-.362.684-.848.684-1.454 0-.54-.188-.995-.565-1.364-.375-.369-1.002-.712-1.877-1.029-2.382-.869-3.572-2.142-3.572-3.816 0-1.094.418-1.991 1.253-2.689.832-.699 1.942-1.048 3.33-1.048 1.238 0 2.266.211 3.087.632l-.545 1.738c-.766-.408-1.633-.612-2.603-.612-.767 0-1.366.185-1.795.553-.363.329-.545.73-.545 1.205 0 .526.207.961.624 1.303.363.316 1.023.658 1.98 1.027 1.17.461 2.03 1 2.583 1.618.55.616.826 1.387.826 2.307ZM97.201 23.508H94.8v4.659c0 1.185.423 1.777 1.272 1.777.389 0 .712-.033.968-.099l.06 1.619c-.43.157-.995.236-1.695.236-.86 0-1.533-.257-2.019-.77-.483-.514-.727-1.376-.727-2.587v-4.837h-1.43v-1.6h1.43v-1.757l2.14-.632v2.389h2.403v1.602ZM108.04 26.627c0 1.475-.432 2.686-1.292 3.633-.903.975-2.101 1.46-3.594 1.46-1.44 0-2.586-.466-3.44-1.4-.855-.934-1.282-2.113-1.282-3.534 0-1.487.44-2.705 1.322-3.652.88-.948 2.068-1.422 3.561-1.422 1.439 0 2.598.467 3.471 1.402.837.907 1.254 2.078 1.254 3.513Zm-2.261.069c0-.885-.194-1.644-.585-2.277-.457-.766-1.11-1.148-1.957-1.148-.876 0-1.541.383-1.998 1.148-.392.634-.585 1.405-.585 2.317 0 .885.193 1.644.585 2.276.471.766 1.129 1.148 1.979 1.148.832 0 1.485-.39 1.956-1.168.402-.645.605-1.412.605-2.296ZM115.124 23.783a3.871 3.871 0 0 0-.687-.06c-.767 0-1.36.284-1.777.85-.363.5-.545 1.133-.545 1.896v5.035h-2.178l.021-6.574c0-1.106-.028-2.113-.082-3.021h1.898l.08 1.836h.06c.23-.631.593-1.14 1.09-1.52a2.673 2.673 0 0 1 1.575-.514c.201 0 .383.014.545.039v2.033ZM124.871 26.252c0 .382-.026.704-.08.967h-6.538c.025.948.341 1.673.948 2.173.551.447 1.264.671 2.139.671.968 0 1.851-.151 2.645-.454l.342 1.48c-.928.396-2.024.593-3.289.593-1.521 0-2.715-.438-3.584-1.313-.866-.875-1.301-2.05-1.301-3.524 0-1.447.404-2.652 1.212-3.613.847-1.026 1.991-1.539 3.43-1.539 1.414 0 2.484.513 3.211 1.539.575.815.865 1.823.865 3.02Zm-2.079-.553c.015-.632-.127-1.178-.423-1.639-.377-.593-.957-.889-1.737-.889-.712 0-1.292.289-1.734.869-.363.461-.579 1.014-.645 1.658h4.539v.001ZM45.547 9.718h.866c.795 0 1.27.364 1.27.98 0 .606-.501 1.02-1.244 1.02-.773 0-1.3-.374-1.35-.967H44c.057 1.15 1.024 1.907 2.435 1.907 1.384 0 2.412-.809 2.412-1.894 0-.853-.532-1.46-1.384-1.56v-.036c.703-.158 1.186-.747 1.186-1.459C48.65 6.703 47.753 6 46.456 6c-1.362 0-2.245.725-2.302 1.88h1.059c.048-.597.51-.966 1.213-.966.694 0 1.125.352 1.125.923 0 .571-.47.967-1.16.967h-.844v.914ZM51.545 11.748c-.474 0-.79-.242-.79-.624 0-.37.302-.606.83-.642l1.076-.066v.357c0 .562-.496.975-1.116.975Zm-.33.826c.598 0 1.183-.312 1.45-.817h.023v.742h1.054V9.291c0-.936-.751-1.546-1.907-1.546-1.186 0-1.929.624-1.977 1.494h1.015c.07-.387.4-.637.918-.637.54 0 .87.28.87.769v.334l-1.23.07c-1.134.07-1.771.567-1.771 1.393 0 .84.655 1.406 1.556 1.406ZM58.04 8.685v-.844h-3.16V12.5h1.09V8.685h2.07ZM61.551 7.762c-.677 0-1.204.343-1.468.884h-.021V7.84h-1.068v6.192h1.094v-2.307h.022c.255.523.782.848 1.459.848 1.169 0 1.916-.918 1.916-2.404 0-1.49-.752-2.408-1.934-2.408Zm-.334 3.916c-.68 0-1.133-.594-1.138-1.508.005-.905.457-1.507 1.138-1.507.708 0 1.147.589 1.147 1.507 0 .923-.44 1.508-1.147 1.508ZM64.86 14.231c1.064 0 1.578-.391 1.978-1.547l1.683-4.843h-1.152l-1.098 3.727h-.018L65.155 7.84h-1.196l1.657 4.663c.004.013-.061.246-.061.26-.124.43-.357.601-.81.601-.065 0-.258-.004-.316-.017v.865c.058.014.37.018.431.018ZM71.034 12.592c1.2 0 1.965-.58 1.965-1.481 0-.523-.308-.905-.892-1.046v-.035c.448-.119.729-.51.729-.98 0-.8-.642-1.305-1.815-1.305-1.09 0-1.802.54-1.894 1.42h1.037c.062-.361.378-.572.857-.572.505 0 .747.233.747.567 0 .378-.26.562-.756.562h-.641v.756h.663c.585 0 .88.193.88.615 0 .378-.317.637-.88.637-.51 0-.844-.215-.94-.615H69.03c.088.919.857 1.477 2.004 1.477ZM75.06 12.5l2.025-3.134h.036V12.5h1.072V7.841H77.12l-2.026 3.112h-.035V7.84h-1.073V12.5h1.073ZM83 7.841h-3.95v.844h1.432V12.5h1.086V8.685H83v-.844ZM85.782 8.593c.628 0 1.05.461 1.072 1.12H84.68c.044-.65.488-1.12 1.103-1.12Zm1.077 2.513c-.12.387-.506.642-1.016.642-.716 0-1.173-.5-1.173-1.248v-.066h3.256v-.356c0-1.415-.826-2.333-2.149-2.333-1.344 0-2.197.97-2.197 2.443 0 1.485.844 2.404 2.241 2.404 1.103 0 1.92-.607 2.061-1.486H86.86ZM92.826 8.584c.444 0 .69.207.69.571 0 .387-.264.59-.774.59h-.8V8.583h.884Zm-.018 1.854c.59 0 .892.225.892.66 0 .426-.285.659-.804.659h-.953v-1.319h.865ZM90.87 12.5h2.246c1.033 0 1.674-.522 1.674-1.344 0-.585-.413-1.015-1.024-1.095v-.035c.462-.079.818-.514.818-1.002 0-.738-.563-1.182-1.503-1.182h-2.21V12.5Z"/>
        </svg>
    </symbol>

    <symbol id="googleplay">
        <svg xmlns="http://www.w3.org/2000/svg" width="138" height="40" fill="none">
            <path fill="#F4F4F4"
                  d="M132.628.801c2.362 0 4.284 1.884 4.284 4.199v30c0 2.315-1.922 4.199-4.284 4.199H5.101C2.74 39.199.817 37.315.817 35V5C.817 2.685 2.74.801 5.101.801h127.527Zm0-.801H5.101C2.297 0 0 2.251 0 5v30c0 2.749 2.297 5 5.101 5h127.527c2.805 0 5.101-2.251 5.101-5V5c0-2.749-2.296-5-5.101-5Z"/>
            <path fill="#F4F4F4"
                  d="M69.512 21.753c-2.396 0-4.354 1.787-4.354 4.253 0 2.447 1.958 4.253 4.354 4.253 2.401 0 4.359-1.806 4.359-4.253 0-2.466-1.957-4.253-4.359-4.253Zm0 6.83c-1.315 0-2.446-1.063-2.446-2.577 0-1.534 1.131-2.579 2.446-2.579 1.315 0 2.451 1.046 2.451 2.58 0 1.513-1.136 2.577-2.45 2.577Zm-9.5-6.83c-2.4 0-4.353 1.787-4.353 4.253 0 2.447 1.952 4.253 4.354 4.253 2.4 0 4.353-1.806 4.353-4.253 0-2.466-1.953-4.253-4.353-4.253Zm0 6.83c-1.315 0-2.45-1.063-2.45-2.577 0-1.534 1.135-2.579 2.45-2.579 1.316 0 2.447 1.046 2.447 2.58 0 1.513-1.132 2.577-2.446 2.577ZM48.71 23.057v1.808h4.403c-.129 1.01-.473 1.752-1 2.27-.644.625-1.645 1.319-3.403 1.319-2.71 0-4.832-2.144-4.832-4.8 0-2.657 2.122-4.8 4.832-4.8 1.465 0 2.531.56 3.318 1.288l1.3-1.273c-1.101-1.03-2.565-1.822-4.618-1.822-3.717 0-6.84 2.964-6.84 6.607 0 3.642 3.123 6.606 6.84 6.606 2.008 0 3.517-.645 4.703-1.855 1.215-1.192 1.594-2.866 1.594-4.219 0-.42-.036-.806-.1-1.129H48.71Zm46.223 1.401c-.358-.95-1.464-2.704-3.716-2.704-2.232 0-4.09 1.723-4.09 4.253 0 2.383 1.84 4.253 4.304 4.253a4.322 4.322 0 0 0 3.617-1.885l-1.48-.966c-.493.707-1.165 1.176-2.137 1.176-.965 0-1.658-.434-2.101-1.289l5.803-2.354-.2-.483Zm-5.917 1.417a2.355 2.355 0 0 1 2.266-2.48c.757 0 1.4.371 1.614.902l-3.88 1.578ZM84.298 30h1.907V17.5h-1.907V30Zm-3.125-7.3h-.064c-.428-.497-1.245-.947-2.281-.947-2.173 0-4.16 1.87-4.16 4.267 0 2.384 1.987 4.239 4.16 4.239 1.035 0 1.853-.454 2.281-.966h.064v.61c0 1.626-.886 2.5-2.316 2.5-1.165 0-1.888-.825-2.187-1.52l-1.659.68c.478 1.127 1.745 2.515 3.846 2.515 2.237 0 4.125-1.29 4.125-4.43v-7.637h-1.809v.689Zm-2.182 5.884c-1.315 0-2.415-1.079-2.415-2.564 0-1.499 1.1-2.593 2.415-2.593 1.296 0 2.317 1.094 2.317 2.593 0 1.485-1.021 2.564-2.317 2.564ZM103.864 17.5h-4.563V30h1.903v-4.736h2.66c2.113 0 4.186-1.499 4.186-3.883 0-2.382-2.078-3.881-4.186-3.881Zm.05 6.025h-2.71v-4.286h2.71a2.19 2.19 0 0 1 2.232 2.142c0 .968-.811 2.144-2.232 2.144Zm11.762-1.796c-1.375 0-2.805.595-3.393 1.913l1.689.694c.363-.694 1.032-.918 1.738-.918.987 0 1.988.58 2.004 1.607v.131c-.345-.195-1.082-.483-1.989-.483-1.818 0-3.671.98-3.671 2.812 0 1.675 1.489 2.754 3.164 2.754 1.28 0 1.987-.567 2.431-1.225h.065v.966h1.837v-4.795c0-2.216-1.688-3.456-3.875-3.456Zm-.23 6.85c-.622 0-1.489-.303-1.489-1.059 0-.968 1.081-1.339 2.017-1.339.838 0 1.231.181 1.74.42-.15 1.158-1.166 1.978-2.268 1.978Zm10.8-6.576-2.187 5.418h-.065l-2.261-5.418h-2.052l3.398 7.572-1.939 4.214h1.988l5.235-11.787h-2.117ZM109.095 30h1.908V17.5h-1.908V30Z"/>
            <path fill="url(#a)"
                  d="M10.646 7.539c-.3.307-.473.786-.473 1.406V31.06c0 .62.174 1.099.473 1.406l.074.068 12.643-12.388v-.292L10.72 7.466l-.074.073Z"/>
            <path fill="url(#b)"
                  d="m27.573 24.277-4.21-4.13v-.293l4.215-4.131.094.053 4.992 2.784c1.424.79 1.424 2.09 0 2.885l-4.992 2.779-.1.053Z"/>
            <path fill="url(#c)" d="M27.671 24.224 23.362 20 10.645 32.466c.473.488 1.245.547 2.122.059l14.904-8.301Z"/>
            <path fill="url(#d)" d="M27.671 15.776 12.767 7.475c-.877-.482-1.649-.424-2.122.064L23.362 20l4.31-4.224Z"/>
            <path fill="#F4F4F4"
                  d="M49.44 11.45v.948h-4.654v-.949h4.654Zm-4.325 0v2.517h-1.144l-.057-2.518h1.201Zm5.224 0-.092 2.522h-1.119v-2.523h1.21ZM48.689 6v.954h-3.008V6h3.009Zm.891 0v6.398h-1.202V6h1.202Zm-4.092 0h1.206l-.162 2.602a8.27 8.27 0 0 1-.132 1.12c-.061.328-.137.62-.228.875-.09.255-.191.479-.302.672a3.019 3.019 0 0 1-.72.861 4.7 4.7 0 0 1-.372.268h-.671v-.949h.289c.085-.073.174-.176.268-.307.096-.132.188-.307.276-.523.09-.217.17-.491.237-.822.067-.331.115-.73.145-1.195L45.487 6ZM50.98 10.07v-.093c0-.349.049-.67.148-.962.1-.296.244-.553.434-.77.19-.216.423-.385.698-.505.275-.123.587-.184.938-.184.357 0 .673.061.948.184.277.12.511.289.701.506.19.216.335.473.435.769.1.293.149.613.149.962v.092c0 .346-.05.667-.15.963-.099.293-.243.55-.434.769-.19.217-.422.385-.697.505-.275.12-.59.18-.943.18-.35 0-.665-.06-.943-.18a1.947 1.947 0 0 1-.702-.505 2.283 2.283 0 0 1-.434-.77c-.1-.295-.149-.616-.149-.962Zm1.157-.093v.092c0 .208.02.403.061.585.041.181.104.341.189.479a.945.945 0 0 0 .329.325.998.998 0 0 0 .491.114.964.964 0 0 0 .483-.114.945.945 0 0 0 .329-.325c.087-.138.152-.298.193-.48.04-.18.06-.376.06-.584v-.092c0-.205-.02-.397-.06-.576a1.495 1.495 0 0 0-.194-.479.922.922 0 0 0-.82-.452.909.909 0 0 0-.811.452 1.56 1.56 0 0 0-.189.48 2.57 2.57 0 0 0-.061.575ZM58.4 11.572c.164 0 .31-.032.439-.096a.77.77 0 0 0 .306-.273.768.768 0 0 0 .128-.409h1.092c-.006.323-.097.611-.272.866-.176.255-.41.457-.702.607-.29.146-.614.22-.974.22-.365 0-.684-.062-.956-.185a1.863 1.863 0 0 1-.68-.514 2.275 2.275 0 0 1-.403-.765c-.088-.29-.132-.6-.132-.932v-.14c0-.331.044-.642.132-.932.09-.29.225-.545.404-.765.18-.22.407-.39.68-.514a2.29 2.29 0 0 1 .951-.184c.383 0 .72.074 1.009.224.292.15.52.36.684.633.167.272.253.593.259.962h-1.092a1.057 1.057 0 0 0-.114-.457.839.839 0 0 0-.299-.325.855.855 0 0 0-.469-.123.912.912 0 0 0-.491.123.848.848 0 0 0-.303.338c-.07.14-.12.299-.149.475-.026.173-.04.354-.04.545v.14c0 .194.014.378.04.554.03.176.08.334.15.475a.863.863 0 0 0 .302.33.93.93 0 0 0 .5.122ZM63.619 7.644v4.754h-1.162V7.644h1.162Zm1.544 0v.905h-4.224v-.905h4.224ZM67.465 11.871l1.272-4.227h1.241l-1.903 5.475c-.044.117-.101.245-.171.383a1.625 1.625 0 0 1-.272.39 1.303 1.303 0 0 1-.43.308c-.17.08-.376.119-.618.119a1.61 1.61 0 0 1-.281-.022 3.485 3.485 0 0 1-.259-.057v-.87a1 1 0 0 0 .101.004 1.463 1.463 0 0 0 .526-.057.554.554 0 0 0 .268-.19 1.05 1.05 0 0 0 .175-.333l.351-.923Zm-.627-4.227 1.075 3.502.188 1.226-.798.145-1.715-4.873h1.25ZM73.904 7.644v.918h-2.32v-.918h2.32Zm-2.014 0v4.754h-1.162V7.644h1.162Zm2.89 0v4.754h-1.166V7.644h1.167ZM79.254 9.595v.91H76.82v-.91h2.434Zm-2.07-1.951v4.754h-1.162V7.644h1.162Zm2.882 0v4.754h-1.167V7.644h1.167ZM81.092 10.07v-.093c0-.349.05-.67.149-.962.1-.296.244-.553.434-.77.19-.216.422-.385.697-.505.275-.123.588-.184.939-.184.357 0 .672.061.947.184.278.12.512.289.702.506.19.216.335.473.434.769.1.293.15.613.15.962v.092c0 .346-.05.667-.15.963-.1.293-.244.55-.434.769-.19.217-.422.385-.697.505-.275.12-.59.18-.943.18-.351 0-.665-.06-.943-.18a1.947 1.947 0 0 1-.702-.505 2.283 2.283 0 0 1-.434-.77c-.1-.295-.15-.616-.15-.962Zm1.158-.093v.092c0 .208.02.403.061.585.04.181.104.341.189.479a.945.945 0 0 0 .329.325.998.998 0 0 0 .49.114.963.963 0 0 0 .483-.114.944.944 0 0 0 .33-.325c.087-.138.151-.298.192-.48a2.65 2.65 0 0 0 .061-.584v-.092c0-.205-.02-.397-.06-.576a1.493 1.493 0 0 0-.194-.479.922.922 0 0 0-.82-.452.91.91 0 0 0-.811.452 1.56 1.56 0 0 0-.189.48c-.04.178-.061.37-.061.575ZM91.315 10.386H89.81l-.01-.787h1.238c.184 0 .334-.019.451-.057a.499.499 0 0 0 .26-.171.441.441 0 0 0 .087-.277.517.517 0 0 0-.053-.242.423.423 0 0 0-.158-.171.724.724 0 0 0-.258-.097 1.627 1.627 0 0 0-.36-.035h-.785v3.85H89.06V7.643h1.947c.307 0 .583.027.829.083.245.053.454.133.627.242.172.108.304.246.395.413.093.164.14.357.14.58a.913.913 0 0 1-.096.413c-.065.129-.16.243-.285.343-.126.1-.281.181-.465.246-.185.061-.395.1-.632.114l-.206.308Zm0 2.012h-1.816l.43-.905h1.386c.17 0 .31-.02.421-.061a.497.497 0 0 0 .246-.19.521.521 0 0 0 .083-.298.534.534 0 0 0-.079-.295.464.464 0 0 0-.241-.193 1.095 1.095 0 0 0-.43-.07h-1.197l.008-.787h1.39l.308.312c.316.02.577.085.785.194.207.105.362.24.465.404a.972.972 0 0 1 .153.531c0 .226-.042.424-.127.594-.085.17-.21.312-.373.426a1.852 1.852 0 0 1-.6.255 3.56 3.56 0 0 1-.812.083Z"/>
            <defs>
                <linearGradient id="a" x1="22.241" x2="5.462" y1="31.29" y2="14.172" gradientUnits="userSpaceOnUse">
                    <stop stop-color="#00A0FF"/>
                    <stop offset=".007" stop-color="#00A1FF"/>
                    <stop offset=".26" stop-color="#00BEFF"/>
                    <stop offset=".512" stop-color="#00D2FF"/>
                    <stop offset=".76" stop-color="#00DFFF"/>
                    <stop offset="1" stop-color="#00E3FF"/>
                </linearGradient>
                <linearGradient id="b" x1="34.519" x2="9.832" y1="19.999" y2="19.999" gradientUnits="userSpaceOnUse">
                    <stop stop-color="#FFE000"/>
                    <stop offset=".409" stop-color="#FFBD00"/>
                    <stop offset=".775" stop-color="orange"/>
                    <stop offset="1" stop-color="#FF9C00"/>
                </linearGradient>
                <linearGradient id="c" x1="25.328" x2="2.574" y1="17.704" y2="-5.51" gradientUnits="userSpaceOnUse">
                    <stop stop-color="#FF3A44"/>
                    <stop offset="1" stop-color="#C31162"/>
                </linearGradient>
                <linearGradient id="d" x1="7.444" x2="17.605" y1="39.824" y2="29.458" gradientUnits="userSpaceOnUse">
                    <stop stop-color="#32A071"/>
                    <stop offset=".069" stop-color="#2DA771"/>
                    <stop offset=".476" stop-color="#15CF74"/>
                    <stop offset=".801" stop-color="#06E775"/>
                    <stop offset="1" stop-color="#00F076"/>
                </linearGradient>
            </defs>
        </svg>
    </symbol>

    <symbol id="mastercard">
        <svg xmlns="http://www.w3.org/2000/svg" width="32" height="21" fill="none">
            <path fill="currentColor"
                  d="M16.119 5.341a6.57 6.57 0 0 1 1.877 2.29c.44.894.67 1.875.669 2.869 0 .993-.229 1.974-.67 2.867a6.57 6.57 0 0 1-1.876 2.29 6.572 6.572 0 0 1-1.877-2.29 6.465 6.465 0 0 1-.67-2.868c0-.994.229-1.974.67-2.868a6.572 6.572 0 0 1 1.877-2.29Zm-.854-.562a7.526 7.526 0 0 0-1.977 2.572 7.415 7.415 0 0 0-.7 3.15 7.414 7.414 0 0 0 .7 3.15 7.526 7.526 0 0 0 1.976 2.572 6.75 6.75 0 0 1-6.633-.06 6.614 6.614 0 0 1-2.415-2.4 6.484 6.484 0 0 1-.883-3.265c0-1.145.306-2.27.885-3.264a6.614 6.614 0 0 1 2.416-2.399 6.747 6.747 0 0 1 6.631-.056Zm1.709 11.444a7.527 7.527 0 0 0 1.976-2.572c.462-.987.7-2.062.7-3.15a7.415 7.415 0 0 0-.7-3.15 7.526 7.526 0 0 0-1.978-2.572 6.75 6.75 0 0 1 6.632.056 6.614 6.614 0 0 1 2.417 2.4c.579.993.884 2.118.884 3.263 0 1.146-.304 2.271-.883 3.265a6.613 6.613 0 0 1-2.415 2.4 6.75 6.75 0 0 1-6.632.06h-.001Z"/>
        </svg>
    </symbol>

    <symbol id="mir">
        <svg xmlns="http://www.w3.org/2000/svg" width="32" height="21" fill="none">
            <g fill="currentColor" clip-path="url(#a)">
                <path d="M23.086 9.403v5.035h2.76v-2.984h3.128c1.315-.009 2.433-.862 2.856-2.05h-8.744ZM22.718 5.255c.161 2.055 2.084 3.682 4.43 3.682h4.797c.037-.186.055-.382.055-.583 0-1.706-1.357-3.085-3.035-3.1h-6.247ZM18.633 8.886a.165.165 0 0 1 .148-.089c.091 0 .16.075.165.163v5.43h2.76V5.256h-2.76c-.35.014-.745.27-.892.592L15.86 10.62c-.005.018-.014.037-.023.056a.184.184 0 0 1-.336-.108V5.255h-2.76v9.136h2.76c.345-.019.731-.275.878-.592l2.254-4.9c-.004-.004 0-.009 0-.013ZM8.33 9.044l-1.614 5.347H4.728L3.118 9.04a.18.18 0 0 0-.359.033v5.313H0V5.25H3.073c.506 0 1.04.4 1.186.89l1.343 4.452c.07.224.175.219.244 0L7.19 6.14c.147-.494.681-.89 1.187-.89H11.449v9.136h-2.76V9.068a.18.18 0 0 0-.18-.182.188.188 0 0 0-.179.158Z"/>
            </g>
            <defs>
                <clipPath id="a">
                    <path fill="currentColor" d="M0 0h32v21H0z"/>
                </clipPath>
            </defs>
        </svg>
    </symbol>

    <symbol id="visa">
        <svg xmlns="http://www.w3.org/2000/svg" width="32" height="21" fill="none">
            <path fill="currentColor"
                  d="m15.844 5.858-2.137 10.318h-2.586l2.14-10.318h2.583Zm10.88 6.662 1.36-3.875.785 3.875h-2.145Zm2.884 3.656H32L29.913 5.858h-2.218c-.49 0-.91.31-1.087.75l-.004.007-3.878 9.56h2.714l.54-1.541h3.317l.31 1.542Zm-6.749-3.368c.011-2.724-3.648-2.874-3.622-4.091.009-.37.349-.765 1.096-.865a4.73 4.73 0 0 1 2.579.475l-.03-.014.454-2.188a6.623 6.623 0 0 0-2.417-.458h-.001c-2.557 0-4.355 1.404-4.37 3.412-.017 1.485 1.283 2.312 2.263 2.808 1.009.505 1.347.83 1.342 1.28-.007.695-.803.999-1.547 1.01-.035.002-.076.002-.117.002-.93 0-1.804-.241-2.568-.668l.029.015-.468 2.26c.838.347 1.81.547 2.828.547h.048-.002c2.716 0 4.493-1.384 4.502-3.529l.001.003Zm-10.71-6.95L7.961 16.176H5.227L3.166 7.94c-.04-.4-.278-.736-.609-.903l-.006-.003a10.309 10.309 0 0 0-2.48-.866L0 6.156l.062-.299h4.4c.6 0 1.098.453 1.19 1.044l.002.007 1.09 5.971 2.69-7.023 2.715.002Z"/>
        </svg>
    </symbol>
</svg>
